<mxfile host="app.diagrams.net" modified="2023-11-20T03:31:40.830Z" agent="Mozilla/5.0 (Macintosh; Intel Mac OS X 10_15_7) AppleWebKit/537.36 (KHTML, like Gecko) Chrome/114.0.0.0 Safari/537.36" version="22.1.3" etag="k7FykpIb3iNfNwTHvlMN" type="github">
  <diagram name="第 1 页" id="l-HJzpwRZtRxjyEdvVuT">
    <mxGraphModel>
      <root>
        <mxCell id="0" />
        <mxCell id="1" parent="0" />
      </root>
    </mxGraphModel>
  </diagram>
</mxfile>
